<svg width="48" height="48" viewBox="0 0 48 48" fill="none" xmlns="http://www.w3.org/2000/svg">
<path d="M47.8598 7.42691C46.7482 3.68291 38.4739 0 24 0C9.52608 0 1.25088 3.68291 0.14016 7.42691C0.0526393 7.55567 0.00427327 7.70324 0 7.85455V40.1455C0.000512454 40.2831 0.0391391 40.4185 0.11232 40.5391C1.24608 44.8111 11.3894 48 24 48C36.5818 48 46.7088 44.8241 47.88 40.5679C47.9592 40.4387 48.0005 40.2933 48 40.1455V7.85455C47.9957 7.70324 47.9474 7.55567 47.8598 7.42691ZM46.0042 29.6596C45.9523 29.8615 45.8686 30.0556 45.7555 30.2356C45.6361 30.4382 45.4911 30.6274 45.3235 30.7994C45.2136 30.9186 45.0973 31.0328 44.975 31.1415C44.8973 31.2105 44.8118 31.2785 44.7254 31.3475C44.5628 31.4777 44.3943 31.6017 44.2205 31.7193C44.1418 31.7725 44.0573 31.824 43.9738 31.8764C43.7568 32.0125 43.5302 32.1478 43.2816 32.2804C43.2163 32.3162 43.1462 32.3503 43.0781 32.3852C42.7809 32.5386 42.4783 32.6833 42.1709 32.8189C42.1296 32.8372 42.0864 32.8547 42.0442 32.8721C41.6842 33.0266 41.3078 33.1785 40.9056 33.3251L40.871 33.3373C38.6909 34.1289 35.9021 34.7948 32.6525 35.2311L32.6035 35.2372C31.9568 35.3235 31.3084 35.3989 30.6586 35.4633C30.5501 35.4737 30.4358 35.4807 30.3264 35.4912C29.7456 35.5462 29.1581 35.5968 28.5533 35.6369C28.2768 35.6553 27.9869 35.664 27.7056 35.6797C27.2506 35.7041 26.8003 35.7312 26.3338 35.746C24.778 35.795 23.2209 35.7941 21.6653 35.7434C21.1987 35.7286 20.7485 35.7007 20.2934 35.6771C20.0122 35.6623 19.7222 35.6527 19.4458 35.6343C18.8539 35.5941 18.2628 35.5455 17.6726 35.4886C17.5632 35.4781 17.449 35.4711 17.3405 35.4607C16.6907 35.3958 16.0423 35.3205 15.3955 35.2346L15.3466 35.2285C12.097 34.7921 9.30816 34.1263 7.128 33.3347C6.7317 33.1908 6.34047 33.0357 5.95488 32.8695C5.9136 32.8512 5.86944 32.8337 5.82816 32.8163C5.52051 32.681 5.21794 32.5363 4.92096 32.3825C4.85376 32.3476 4.78272 32.3136 4.71744 32.2778C4.4813 32.151 4.25042 32.0162 4.02528 31.8737C3.94272 31.8214 3.85728 31.7699 3.77856 31.7167C3.60471 31.5991 3.43624 31.475 3.2736 31.3449C3.18816 31.2768 3.10176 31.2087 3.024 31.1389C2.90149 31.0304 2.78518 30.9162 2.67552 30.7968C2.51004 30.6233 2.36523 30.4343 2.24352 30.233C2.13002 30.0531 2.04624 29.8591 1.99488 29.657C1.95936 29.5183 1.92 29.3769 1.92 29.2364C1.92 29.1377 1.93248 29.0391 1.94976 28.9414C1.97223 28.8115 1.96206 28.6788 1.92 28.553V22.0739C1.94688 22.0966 1.98048 22.1184 2.00832 22.1411C2.2176 22.3087 2.43072 22.4753 2.67072 22.6359C6.28704 25.1223 13.5187 27.0545 24 27.0545C34.4371 27.0545 41.6506 25.138 45.2822 22.6665C45.5722 22.4745 45.8333 22.2764 46.079 22.0748L46.08 22.0739V28.553C46.0379 28.6788 46.0278 28.8115 46.0502 28.9414C46.0685 29.0391 46.08 29.1377 46.08 29.2364C46.08 29.3769 46.0406 29.5183 46.0042 29.6596ZM46.08 11.6012V18.0803C46.0379 18.206 46.0278 18.3388 46.0502 18.4687C46.0685 18.5664 46.08 18.665 46.08 18.7636C46.08 18.9041 46.0406 19.0455 46.0042 19.1869C45.9523 19.3888 45.8686 19.5828 45.7555 19.7629C45.6361 19.9655 45.4911 20.1547 45.3235 20.3267C45.2136 20.4459 45.0973 20.56 44.975 20.6688C44.8973 20.7377 44.8118 20.8058 44.7254 20.8748C44.5628 21.0049 44.3943 21.129 44.2205 21.2465C44.1418 21.2998 44.0573 21.3513 43.9738 21.4036C43.7568 21.5398 43.5302 21.6751 43.2816 21.8077C43.2163 21.8435 43.1462 21.8775 43.0781 21.9124C42.7809 22.0659 42.4783 22.2105 42.1709 22.3462C42.1296 22.3645 42.0864 22.382 42.0442 22.3994C41.6842 22.5539 41.3078 22.7057 40.9056 22.8524L40.871 22.8646C38.6909 23.6561 35.9021 24.322 32.6525 24.7584L32.6035 24.7645C31.9568 24.8508 31.3084 24.9261 30.6586 24.9905C30.5501 25.001 30.4358 25.008 30.3264 25.0185C29.7456 25.0735 29.1581 25.1241 28.5533 25.1642C28.2768 25.1825 27.9869 25.1913 27.7056 25.207C27.2506 25.2314 26.8003 25.2585 26.3338 25.2733C24.778 25.3223 23.2209 25.3214 21.6653 25.2707C21.1987 25.2559 20.7485 25.2279 20.2934 25.2044C20.0122 25.1895 19.7222 25.1799 19.4458 25.1616C18.8539 25.1214 18.2628 25.0728 17.6726 25.0159C17.5632 25.0054 17.449 24.9984 17.3405 24.9879C16.6907 24.9231 16.0423 24.8477 15.3955 24.7619L15.3466 24.7558C12.097 24.3194 9.30816 23.6535 7.128 22.862C6.7317 22.7181 6.34047 22.563 5.95488 22.3968C5.9136 22.3785 5.86944 22.361 5.82816 22.3436C5.52051 22.2083 5.21794 22.0636 4.92096 21.9098C4.85376 21.8749 4.78272 21.8409 4.71744 21.8051C4.4813 21.6782 4.25042 21.5434 4.02528 21.401C3.94272 21.3487 3.85728 21.2972 3.77856 21.2439C3.60471 21.1263 3.43624 21.0023 3.2736 20.8721C3.18816 20.8041 3.10176 20.736 3.024 20.6662C2.90149 20.5576 2.78518 20.4434 2.67552 20.3241C2.51004 20.1505 2.36523 19.9615 2.24352 19.7603C2.13002 19.5804 2.04624 19.3863 1.99488 19.1843C1.95936 19.0455 1.92 18.9041 1.92 18.7636C1.92 18.665 1.93248 18.5664 1.94976 18.4687C1.97223 18.3388 1.96206 18.206 1.92 18.0803V11.6012C2.0352 11.6963 2.16672 11.7897 2.29152 11.8839C2.36064 11.9363 2.42496 11.9887 2.49792 12.041C2.78592 12.247 3.09696 12.4503 3.43392 12.6484C3.504 12.6895 3.58272 12.7296 3.65568 12.7706C4.06097 12.9996 4.47704 13.2125 4.90272 13.4086C5.25312 13.5709 5.6208 13.7289 6.00768 13.8816C6.07104 13.9069 6.12864 13.9331 6.19296 13.9575C6.6432 14.1312 7.12128 14.297 7.61856 14.4576C7.75584 14.5021 7.89984 14.544 8.04096 14.5876C8.43648 14.7089 8.84544 14.825 9.2688 14.9376C9.42144 14.9777 9.5712 15.0196 9.72768 15.058C10.2893 15.1994 10.8691 15.3338 11.4778 15.4577C11.5613 15.4752 11.6515 15.4892 11.736 15.5057C12.4835 15.6531 13.2351 15.7826 13.9901 15.8941C14.5344 15.9753 15.095 16.0495 15.6701 16.1175C15.8179 16.135 15.959 16.1551 16.1088 16.1716C16.823 16.2502 17.5622 16.3174 18.3216 16.375C18.5088 16.3889 18.7037 16.3994 18.8938 16.4116C19.5014 16.4518 20.1226 16.4849 20.7581 16.5111C20.9894 16.5207 21.2198 16.5303 21.456 16.5382C22.2835 16.5635 23.1264 16.5818 24 16.5818C24.8736 16.5818 25.7165 16.5635 26.544 16.5382C26.7792 16.5303 27.0096 16.5207 27.2419 16.5111C27.8774 16.4849 28.4986 16.4518 29.1062 16.4116C29.2963 16.3985 29.4902 16.3889 29.6784 16.375C30.4174 16.3201 31.1551 16.2523 31.8912 16.1716C32.041 16.1551 32.1821 16.135 32.3299 16.1175C33.0885 16.028 33.8449 15.9233 34.5984 15.8033C35.1557 15.7139 35.711 15.6147 36.264 15.5057C36.3485 15.4892 36.4387 15.4743 36.5222 15.4577C37.1091 15.3374 37.6926 15.2041 38.2723 15.058C38.4288 15.0188 38.5786 14.9777 38.7312 14.9376C39.1431 14.8285 39.5524 14.7119 39.959 14.5876C40.1002 14.544 40.2442 14.5021 40.3814 14.4576C40.8621 14.304 41.3375 14.1372 41.807 13.9575C41.8714 13.9331 41.929 13.9069 41.9923 13.8816C42.4872 13.6853 42.9733 13.4713 43.4496 13.2401C43.7635 13.0874 44.0621 12.9312 44.3443 12.7706C44.4173 12.7296 44.496 12.6895 44.5661 12.6484C44.903 12.4503 45.2141 12.2479 45.5021 12.041C45.5741 11.9887 45.6384 11.9363 45.7085 11.8839C45.8333 11.7897 45.9648 11.6963 46.08 11.6012ZM24 1.74545C37.0128 1.74545 46.08 5.19447 46.08 8.29091C46.08 11.3873 37.0128 14.8364 24 14.8364C10.9872 14.8364 1.92 11.3873 1.92 8.29091C1.92 5.19447 10.9872 1.74545 24 1.74545ZM46.08 39.8863C46.0668 39.9248 46.0566 39.9642 46.0493 40.0041C45.505 43.0228 36.5146 46.2545 24 46.2545C11.4854 46.2545 2.49504 43.0228 1.95072 40.0041C1.94309 39.9654 1.93283 39.9272 1.92 39.8897V32.5466C1.94688 32.5693 1.98048 32.5911 2.00832 32.6138C2.2176 32.7814 2.43072 32.9481 2.67072 33.1087C6.28704 35.5951 13.5187 37.5273 24 37.5273C34.4371 37.5273 41.6506 35.6108 45.2822 33.1392C45.5722 32.9472 45.8333 32.7491 46.079 32.5475L46.08 32.5466V39.8863Z" fill="white"/>
</svg>
